<?xml version='1.0' encoding='UTF-8'?>
<svg viewBox="-2 -6 32 32" xmlns="http://www.w3.org/2000/svg">
  <g id="Layer_1" transform="translate(-2, -6)">
    <g id="Keyboard">
      <path d="M26, 6L4, 6C2.9, 6 2, 6.9 2, 8L2, 22C2, 23.1 2.9, 24 4, 24L26, 24C27.1, 24 28, 23.1 28, 22L28, 8C28, 6.9 27.1, 6 26, 6zM14, 10L16, 10L16, 12L14, 12L14, 10zM14, 14L16, 14L16, 16L14, 16L14, 14zM10, 10L12, 10L12, 12L10, 12L10, 10zM10, 14L12, 14L12, 16L10, 16L10, 14zM6, 10L8, 10L8, 12L6, 12L6, 10zM6, 14L8, 14L8, 16L6, 16L6, 14zM20, 20L10, 20L10, 18L20, 18L20, 20zM20, 16L18, 16L18, 14L20, 14L20, 16zM20, 12L18, 12L18, 10L20, 10L20, 12zM24, 16L22, 16L22, 14L24, 14L24, 16zM24, 12L22, 12L22, 10L24, 10L24, 12z" fill="#727272" class="Black" />
    </g>
  </g>
</svg>