<?xml version='1.0' encoding='UTF-8'?>
<svg viewBox="-4 -4 32 32" xmlns="http://www.w3.org/2000/svg">
  <g id="Layer_1" transform="translate(-4, -4)">
    <g id="Reload_1_">
      <path d="M16, 4C19.3, 4 22.3, 5.3 24.5, 7.5L28, 4L28, 14L27.8, 14L23.7, 14L18, 14L21.6, 10.4C20.2, 8.9 18.2, 8 16, 8C11.6, 8 8, 11.6 8, 16C8, 20.4 11.6, 24 16, 24C19.7, 24 22.8, 21.4 23.7, 18L27.8, 18C26.8, 23.7 21.9, 28 16, 28C9.4, 28 4, 22.6 4, 16C4, 9.4 9.4, 4 16, 4z" fill="#FFFFFF" class="White" />
    </g>
  </g>
</svg>