<?xml version='1.0' encoding='UTF-8'?>
<svg viewBox="-2 -2 32 32" xmlns="http://www.w3.org/2000/svg">
  <g id="Layer_1" transform="translate(-2, -2)">
    <g id="Storm">
      <path d="M27, 12C26.6, 12 26.2, 12.1 25.8, 12.2C25.9, 11.8 26, 11.4 26, 11C26, 8.2 23.8, 6 21, 6C20.5, 6 19.9, 6.1 19.4, 6.3C18.4, 3.8 15.9, 2 13, 2C9.1, 2 6, 5.1 6, 9C6, 9.3 6, 9.7 6.1, 10C6.1, 10 6, 10 6, 10C3.8, 10 2, 11.8 2, 14C2, 16.2 3.8, 18 6, 18L7.8, 18L10.8, 12L21.8, 12L17.8, 18L22.9, 18L27, 18C28.7, 18 30, 16.7 30, 15C30, 13.3 28.7, 12 27, 12z" fill="#1177D7" class="Blue" />
    </g>
  </g>
  <g id="Layer_1" transform="translate(-2, -2)">
    <g id="Storm">
      <polygon points="18,14 12,14 8,22 12,22 8,30 18,20 14,20  " fill="#FFB115" class="Yellow" />
    </g>
  </g>
</svg>